HIERARCHY
ROOT root
{
	OFFSET 0.000000 0.000000 0.000000
	CHANNELS 6 Xposition Yposition Zposition Zrotation Yrotation Xrotation
	JOINT lhip
	{
		OFFSET 0.058581 -0.082280 -0.017664
		CHANNELS 3 Zrotation Yrotation Xrotation
		JOINT lknee
		{
			OFFSET 0.043451 -0.386469 0.008037
			CHANNELS 3 Zrotation Yrotation Xrotation
			JOINT lankle
			{
				OFFSET -0.014790 -0.426874 -0.037428
				CHANNELS 3 Zrotation Yrotation Xrotation
				JOINT ltoe
				{
					OFFSET 0.041054 -0.060286 0.122042
					CHANNELS 3 Zrotation Yrotation Xrotation
					End Site
					{
						OFFSET 0.000000 0.000000 0.000000
					}
				}
			}
		}
	}
	JOINT rhip
	{
		OFFSET -0.060310 -0.090513 -0.013543
		CHANNELS 3 Zrotation Yrotation Xrotation
		JOINT rknee
		{
			OFFSET -0.043257 -0.383688 -0.004843
			CHANNELS 3 Zrotation Yrotation Xrotation
			JOINT rankle
			{
				OFFSET 0.019056 -0.420046 -0.034562
				CHANNELS 3 Zrotation Yrotation Xrotation
				JOINT rtoe
				{
					OFFSET -0.034840 -0.062106 0.130323
					CHANNELS 3 Zrotation Yrotation Xrotation
					End Site
					{
						OFFSET 0.000000 0.000000 0.000000
					}
				}
			}
		}
	}
	JOINT lowerback
	{
		OFFSET 0.004439 0.124404 -0.038385
		CHANNELS 3 Zrotation Yrotation Xrotation
		JOINT upperback
		{
			OFFSET 0.004488 0.137956 0.026820
			CHANNELS 3 Zrotation Yrotation Xrotation
			JOINT chest
			{
				OFFSET -0.002265 0.056032 0.002855
				CHANNELS 3 Zrotation Yrotation Xrotation
				JOINT lowerneck
				{
					OFFSET -0.013390 0.211636 -0.033468
					CHANNELS 3 Zrotation Yrotation Xrotation
					JOINT upperneck
					{
						OFFSET 0.010113 0.088937 0.050410
						CHANNELS 3 Zrotation Yrotation Xrotation
						End Site
						{
							OFFSET 0.000000 0.000000 0.000000
						}
					}
				}
				JOINT lclavicle
				{
					OFFSET 0.071702 0.114000 -0.018898
					CHANNELS 3 Zrotation Yrotation Xrotation
					JOINT lshoulder
					{
						OFFSET 0.122921 0.045205 -0.019046
						CHANNELS 3 Zrotation Yrotation Xrotation
						JOINT lelbow
						{
							OFFSET 0.255332 -0.015649 -0.022946
							CHANNELS 3 Zrotation Yrotation Xrotation
							JOINT lwrist
							{
								OFFSET 0.265709 0.012698 -0.007375
								CHANNELS 3 Zrotation Yrotation Xrotation
								End Site
								{
									OFFSET 0.000000 0.000000 0.000000
								}
							}
						}
					}
				}
				JOINT rclavicle
				{
					OFFSET -0.082954 0.112472 -0.023707
					CHANNELS 3 Zrotation Yrotation Xrotation
					JOINT rshoulder
					{
						OFFSET -0.113228 0.046853 -0.008472
						CHANNELS 3 Zrotation Yrotation Xrotation
						JOINT relbow
						{
							OFFSET -0.260127 -0.014369 -0.031269
							CHANNELS 3 Zrotation Yrotation Xrotation
							JOINT rwrist
							{
								OFFSET -0.269108 0.006794 -0.006027
								CHANNELS 3 Zrotation Yrotation Xrotation
								End Site
								{
									OFFSET 0.000000 0.000000 0.000000
								}
							}
						}
					}
				}
			}
		}
	}
}
MOTION
Frames: 17
Frame Time: 0.033333
0.122212 -1.119350 0.856302 -92.427479 -3.010867 97.930404 14.268876 9.504093 -42.724738 -7.894470 12.039676 48.229171 1.062647 6.415230 -21.163267 0.000000 -0.000000 0.000000 -19.395570 -18.574558 -47.069373 -0.501877 -12.897944 64.828323 6.993705 -4.729257 -20.699568 0.000000 -0.000000 0.000000 -0.196670 2.933058 50.010437 -1.297951 -2.144788 -9.181933 1.169514 -1.112951 -1.071634 -9.668399 1.854942 -24.326066 -1.443172 -0.187439 2.327493 -35.607287 -15.434213 0.173688 -40.935071 -21.771832 9.050563 64.998043 -65.597900 -58.004491 24.207485 -4.100827 -27.515806 38.183547 16.550699 6.216346 32.261618 13.094758 7.279741 -58.303582 59.632225 -61.932528 -2.180985 13.655553 -23.624916 
0.121474 -1.124694 0.854018 -92.561995 -3.058093 97.998092 14.268525 8.533401 -43.197854 -6.926589 12.979544 49.304932 1.161950 6.365693 -21.527199 0.000000 -0.000000 0.000000 -19.879935 -18.403418 -47.328337 -1.075778 -12.958364 65.235232 6.859653 -4.270613 -20.448155 0.000000 -0.000000 0.000000 -0.398761 2.826731 49.847688 -1.359000 -2.589899 -8.687364 0.993886 -1.202859 -1.512290 -9.936969 2.185170 -24.741847 -0.906815 0.337899 2.555029 -35.419071 -17.192396 0.046469 -39.869340 -22.481878 8.744917 68.213128 -63.871253 -62.466134 25.930023 -3.356243 -27.186116 38.654434 17.933456 6.496584 32.772777 14.460876 7.492263 -63.027520 58.390752 -66.399903 -1.797486 14.078672 -22.599230 
0.121141 -1.129498 0.851716 -92.534538 -2.509157 98.190212 13.958950 8.575361 -44.122839 -5.843812 12.716885 50.581851 1.372464 6.472017 -21.906034 0.000000 -0.000000 0.000000 -19.501069 -18.301027 -47.713915 -1.451555 -12.792398 65.517513 6.916568 -4.230282 -20.214277 0.000000 -0.000000 0.000000 -0.208510 2.364151 49.696542 -1.276695 -3.083673 -8.646576 0.853695 -1.059399 -1.901173 -10.032029 2.222384 -24.663986 -0.413543 0.780222 2.285177 -34.894444 -18.659342 0.024971 -38.131734 -22.889779 7.508124 67.060870 -63.163938 -61.511211 25.336995 -4.053062 -25.370842 38.034604 19.471496 6.977336 33.968132 16.285571 6.889823 -64.314378 56.811438 -67.324962 -0.475714 14.588938 -21.508372 
0.119735 -1.135031 0.850155 -93.351648 -2.004528 97.826350 13.731208 9.259758 -44.160248 -5.367613 12.177321 51.986847 1.507798 6.696799 -22.407476 0.000000 -0.000000 0.000000 -19.079434 -17.720670 -47.810784 -1.399621 -11.867320 65.513650 6.995961 -4.506418 -19.741546 0.000000 -0.000000 0.000000 -0.890007 2.369922 50.650281 -1.271957 -3.340139 -9.108941 0.702322 -0.748469 -2.258359 -9.839417 2.921154 -25.337903 0.257825 0.530347 1.830442 -33.317584 -20.154889 -0.584476 -34.622389 -23.217773 6.763374 62.744945 -63.716627 -58.749991 26.467671 -3.755760 -23.746030 37.805429 21.531860 6.410114 35.233727 18.548240 7.225406 -63.554876 54.185614 -67.350937 1.166571 13.945219 -19.107030 
0.119297 -1.137460 0.849357 -93.537508 -1.893881 97.789304 13.632079 9.265067 -44.362566 -5.236024 12.076495 52.553403 1.436712 6.768250 -22.676867 0.000000 -0.000000 0.000000 -19.051013 -17.570858 -47.869541 -1.616464 -11.639865 65.546981 7.105819 -4.421489 -19.568141 0.000000 -0.000000 0.000000 -0.928228 2.486125 50.715491 -1.238616 -3.472950 -9.132110 0.651033 -0.776930 -2.371902 -9.656549 3.135017 -25.276002 0.386918 0.196270 1.404670 -33.086816 -20.815051 -0.369721 -33.075387 -22.908771 6.264192 61.610631 -63.751552 -57.964747 26.095512 -4.553735 -22.253908 37.546533 22.162729 6.290949 35.575638 19.001199 7.185619 -63.492259 53.533095 -67.478498 1.579026 13.696650 -18.657096 
0.118031 -1.142150 0.847444 -93.802586 -1.597297 97.637139 13.668629 9.203744 -44.638164 -4.955375 12.181922 53.646759 1.505214 7.106724 -23.122082 0.000000 -0.000000 0.000000 -19.206958 -17.605516 -47.825516 -1.489889 -11.537665 65.689223 7.336532 -4.269219 -19.391344 0.000000 -0.000000 0.000000 -0.954457 2.570653 50.779950 -1.123803 -3.678293 -9.081894 0.601106 -0.677336 -2.558708 -9.527250 3.171658 -25.252946 0.704948 -0.310572 0.804717 -32.029424 -21.486192 -0.563271 -31.299247 -22.356921 5.874477 60.085279 -64.328188 -56.256986 25.173681 -5.308258 -20.801557 36.861324 23.188744 5.839088 36.366822 19.685301 7.204480 -63.463792 52.466595 -67.768926 2.371026 13.519303 -17.867158 
0.116546 -1.147204 0.845528 -94.089930 -1.336333 97.577229 13.621423 9.036307 -44.996584 -4.551826 12.256092 54.746788 1.619977 7.389310 -23.617030 0.000000 -0.000000 0.000000 -19.334038 -17.482602 -47.895843 -1.434487 -11.291349 65.819974 7.451140 -4.221475 -19.207370 0.000000 -0.000000 0.000000 -0.925107 2.627829 50.831071 -1.084928 -3.652633 -9.199846 0.478777 -0.730546 -2.424145 -9.288534 3.469594 -25.800661 0.616721 -0.837372 0.573821 -31.124863 -21.601603 -1.168500 -30.057160 -22.117243 5.795420 58.843317 -65.294137 -53.830558 23.912326 -6.479587 -19.793879 36.310678 23.440380 4.989251 37.372663 20.663055 7.594851 -63.402643 52.226003 -67.675265 2.933310 13.886655 -18.022418 
0.114853 -1.152059 0.843927 -94.335651 -1.203937 97.282427 13.483116 8.927531 -45.072331 -4.424292 12.280566 55.734660 1.794650 7.826151 -24.120429 0.000000 -0.000000 0.000000 -19.568033 -17.351164 -47.673329 -1.371568 -10.892452 65.859817 7.408558 -4.312608 -19.120488 0.000000 -0.000000 0.000000 -0.959362 2.883329 51.116256 -0.984085 -3.672249 -9.225903 0.406001 -0.690294 -2.443388 -8.887403 3.473207 -25.682919 0.543956 -1.342235 0.368076 -30.143704 -21.670728 -1.521371 -29.113775 -22.024402 6.404861 57.817452 -66.470349 -52.675853 25.793541 -6.369541 -19.434954 35.821562 23.492088 4.214744 37.554657 20.601192 8.047492 -63.994891 52.813191 -67.982129 3.165010 13.930467 -17.752742 
0.113172 -1.157034 0.842296 -94.456216 -1.114068 97.117925 13.342768 8.667621 -45.212330 -4.258728 12.482117 56.581439 2.019790 8.243961 -24.791802 0.000000 -0.000000 0.000000 -19.808231 -17.279553 -47.523566 -1.319602 -10.546927 65.890342 7.749227 -4.386153 -18.838134 0.000000 -0.000000 0.000000 -0.976884 3.065026 51.028801 -0.892360 -3.632412 -9.154138 0.387556 -0.770497 -2.296201 -8.634360 3.469804 -25.551021 0.387666 -1.273695 0.178222 -29.652191 -21.499156 -1.929020 -28.396438 -21.922699 6.680358 56.952071 -67.434930 -51.612285 26.757437 -7.108481 -18.363504 35.366786 23.496470 3.376894 37.696692 20.498819 8.604774 -64.142746 53.144721 -68.162981 3.831684 13.991641 -16.756814 
0.111408 -1.162134 0.840775 -94.567215 -0.930534 97.041516 13.327958 8.593591 -45.428030 -4.244975 12.687018 57.415939 2.200011 8.482462 -25.267493 0.000000 -0.000000 0.000000 -19.927674 -17.095605 -47.350014 -1.264865 -10.201710 65.735927 7.900792 -4.719658 -18.627402 0.000000 -0.000000 0.000000 -0.918271 2.972448 50.903647 -0.894050 -3.589447 -9.110151 0.238775 -0.758038 -2.281219 -8.529359 3.554760 -25.351622 0.416135 -1.151542 0.059782 -29.462373 -21.181083 -2.167458 -27.297568 -21.387063 6.736279 55.163882 -69.090185 -49.317393 26.057568 -7.409546 -18.092775 35.208363 23.459075 3.565527 37.399354 20.533207 8.857361 -64.398480 53.477047 -68.259370 4.063361 13.810044 -16.675891 
0.109328 -1.166814 0.840210 -94.497642 -0.933613 96.691246 12.985172 8.420029 -45.213804 -4.198558 12.625148 57.886499 2.212924 8.606601 -25.668525 0.000000 -0.000000 0.000000 -20.106476 -16.962862 -46.883655 -1.585928 -9.639415 65.631701 8.180664 -4.997948 -18.610491 0.000000 -0.000000 0.000000 -0.800785 2.912515 51.295640 -1.000189 -3.707337 -9.350088 0.036833 -0.810866 -2.137773 -8.606819 4.068701 -25.279492 0.696408 -1.132039 -0.267550 -29.245332 -20.854662 -2.256745 -25.358455 -20.430162 6.585787 50.813682 -71.706650 -44.923841 22.010610 -7.658690 -19.332213 35.349540 23.277530 3.638507 37.081975 20.545094 9.058912 -64.227788 53.636510 -68.091793 4.487341 13.406989 -15.718230 
0.107733 -1.171456 0.839931 -94.525346 -1.207128 96.479825 12.378045 8.208594 -45.072264 -4.301933 12.565967 58.105059 2.674135 9.046787 -25.790423 0.000000 -0.000000 0.000000 -20.241105 -16.880814 -46.763172 -1.641804 -8.641709 65.441052 8.327430 -5.637471 -18.354425 0.000000 -0.000000 0.000000 -0.932515 3.252160 51.668389 -0.793198 -3.891951 -9.816552 -0.127195 -0.774490 -1.813339 -8.678446 4.239720 -25.096867 0.628096 -1.740959 -0.655283 -28.925154 -20.693949 -2.138640 -23.140377 -19.965479 7.522185 40.350293 -74.209948 -36.114134 26.636282 -7.998976 -18.995596 35.463817 23.068223 3.245944 36.742760 20.049715 9.693927 -65.172976 52.578309 -68.830326 0.333779 13.301702 -12.080404 
0.106208 -1.176032 0.839694 -94.310096 -1.296982 96.536061 11.859594 7.873708 -45.329294 -4.486670 12.286728 58.324113 3.090340 9.701423 -25.927402 0.000000 -0.000000 0.000000 -20.299135 -16.594694 -46.692595 -1.427475 -7.871445 65.048077 8.379746 -6.782494 -18.022305 0.000000 -0.000000 0.000000 -0.926284 3.547855 51.499705 -0.510320 -3.904761 -10.414515 -0.093083 -1.022475 -1.271051 -8.671712 3.905769 -24.788289 0.568770 -1.887068 -0.630609 -28.690221 -20.830232 -1.383262 -21.030444 -18.760469 8.438039 28.868708 -75.827339 -24.619664 27.903924 -8.720302 -17.466405 35.311809 23.013160 3.377428 35.885062 18.919926 10.044848 -63.997464 53.041964 -68.474840 0.145922 12.622530 -12.249904 
0.104478 -1.180248 0.840345 -94.108422 -1.101008 96.319162 11.514040 7.644944 -45.165689 -4.375791 11.915070 58.507225 2.970132 9.959285 -26.435160 0.000000 -0.000000 0.000000 -20.299876 -16.249148 -46.119979 -1.634183 -7.590084 64.652716 8.778891 -6.941470 -17.754180 0.000000 -0.000000 0.000000 -0.962357 3.398787 51.584950 -0.297435 -4.108250 -9.660426 0.028379 -0.907031 -1.978987 -8.726283 4.549645 -24.573039 0.551164 -2.073651 -0.959523 -27.941289 -20.639393 -1.385477 -19.697061 -16.796165 9.368109 13.388635 -77.437892 -7.487107 21.824936 -10.307005 -15.308309 35.051767 22.919146 3.838105 34.935987 17.952332 9.885738 -61.701329 54.163082 -66.834146 0.566939 12.085754 -12.290206 
0.102855 -1.184136 0.841345 -93.859362 -0.885873 96.351214 11.189039 7.502204 -45.218492 -4.420853 11.536894 58.451247 2.982491 10.280000 -26.564407 0.000000 -0.000000 0.000000 -20.196692 -15.854151 -45.788359 -1.878842 -7.385677 64.093885 8.792934 -7.452364 -17.634718 0.000000 -0.000000 0.000000 -0.794440 3.332325 51.497167 -0.149941 -4.084620 -9.502072 0.046484 -0.982674 -2.325116 -8.598596 5.165032 -24.144079 0.171221 -2.203015 -0.996909 -27.265024 -20.481797 -1.204432 -18.574202 -15.603131 10.449887 -7.368385 -77.138104 16.359105 15.470792 -11.691346 -15.620434 34.791333 22.519868 4.034267 34.107285 16.838681 10.123389 -57.131095 55.374247 -62.906203 -0.106227 12.126703 -13.958974 
0.100252 -1.188246 0.843560 -93.649317 -0.697906 96.139474 10.704058 7.643829 -44.740293 -4.655792 10.976851 58.025458 2.949352 10.603623 -26.724608 0.000000 -0.000000 0.000000 -19.929530 -15.732415 -45.047134 -2.123109 -6.883196 63.201593 8.907120 -7.791766 -17.430484 0.000000 -0.000000 0.000000 -0.534041 3.120378 51.746598 -0.270118 -4.019855 -9.947816 0.004039 -1.105419 -2.248639 -8.442956 5.710468 -23.530796 0.142589 -1.994865 -1.106048 -26.909942 -20.299585 -1.176803 -17.313133 -14.657214 11.271640 -27.659273 -74.817110 41.633065 6.999947 -12.648612 -16.377792 34.350379 22.174183 4.102185 33.690786 15.837692 10.049002 -50.355671 56.309080 -55.350331 0.688263 12.378480 -15.223067 
0.097975 -1.192362 0.846456 -93.737360 -0.542568 96.182933 10.568614 7.527626 -44.286358 -4.321248 11.140653 57.594175 2.651383 10.181934 -26.990590 0.000000 -0.000000 0.000000 -19.959751 -15.525843 -44.330575 -2.563446 -7.024612 62.229405 9.216344 -7.379338 -17.020302 0.000000 -0.000000 0.000000 -0.413992 3.078371 51.239653 -0.466971 -4.057912 -9.350930 0.023003 -1.255988 -2.620821 -8.175106 6.410410 -23.084513 0.072691 -1.870340 -0.938814 -27.617721 -20.282002 -0.339550 -16.891838 -13.007308 12.467527 -34.951097 -72.541532 48.516845 0.118435 -15.213786 -9.080381 34.182892 22.032572 4.720678 33.051275 14.484692 10.557423 -44.108205 57.010229 -49.740406 2.638700 11.568353 -13.795359 
